<svg xmlns="http://www.w3.org/2000/svg" xmlns:xlink="http://www.w3.org/1999/xlink" width="500" zoomAndPan="magnify" viewBox="0 0 375 374.999991" height="500" preserveAspectRatio="xMidYMid meet" version="1.0"><defs><g/><clipPath id="d5e9578e10"><path d="M 37.5 37.5 L 337.5 37.5 L 337.5 337.5 L 37.5 337.5 Z M 37.5 37.5 " clip-rule="nonzero"/></clipPath></defs><g clip-path="url(#d5e9578e10)"><path fill="#ed1c24" d="M 187.5 37.5 C 104.660156 37.5 37.5 104.660156 37.5 187.5 C 37.5 270.339844 104.660156 337.5 187.5 337.5 C 270.339844 337.5 337.5 270.339844 337.5 187.5 C 337.5 104.660156 270.339844 37.5 187.5 37.5 Z M 230.601562 192.78125 C 230.601562 209.800781 229.078125 222.898438 226.101562 231.699219 C 223.179688 240.28125 217.199219 247.679688 208.320312 253.679688 C 199.398438 259.699219 187.78125 262.761719 173.738281 262.761719 C 158.78125 262.761719 147.078125 260.738281 138.980469 256.738281 C 130.960938 252.800781 124.660156 246.941406 120.300781 239.339844 C 116.121094 232.078125 113.519531 223.058594 112.578125 212.480469 L 153.359375 206.921875 C 153.519531 212.738281 154.121094 217.101562 155.179688 220.199219 C 156.421875 223.820312 158.519531 226.78125 161.460938 229.019531 C 163.621094 230.601562 166.601562 231.398438 170.339844 231.398438 C 176.300781 231.398438 180.761719 229.121094 183.578125 224.621094 C 186.261719 220.359375 187.558594 213.558594 187.558594 203.839844 L 187.558594 112.238281 L 230.621094 112.238281 L 230.621094 192.78125 Z M 230.601562 192.78125 " fill-opacity="1" fill-rule="nonzero"/></g><g fill="#ed1c24" fill-opacity="1"><g transform="translate(282.920698, 289.596749)"><g><path d="M 8.953125 0.40625 C 7.003906 0.40625 5.519531 -0.113281 4.5 -1.15625 C 3.476562 -2.207031 2.96875 -3.800781 2.96875 -5.9375 L 2.96875 -30.203125 L 8.375 -30.203125 L 8.375 -6.15625 C 8.375 -4.84375 8.921875 -4.1875 10.015625 -4.1875 C 10.328125 -4.1875 10.660156 -4.238281 11.015625 -4.34375 L 11.296875 -4.265625 L 11.78125 -0.09375 C 11.476562 0.0625 11.078125 0.179688 10.578125 0.265625 C 10.085938 0.359375 9.546875 0.40625 8.953125 0.40625 Z M 8.953125 0.40625 "/></g></g></g></svg>